# xmcd CD database file
#
# Track frame offsets:
#	150
#	11998
#	26954
#	41203
#	56756
#	70629
#	85557
#	99364
#	113698
#	127481
#	142984
#	155359
#	170341
#	184157
#	198063
#	211596
#	224949
#	237461
#	249170
#	262426
#	275924
#	289138
#
# Disc length: 4045 seconds
#
# Revision: 1
# Processed by: cddbd v1.4PL0 Copyright (c) Steve Scherf et al.
# Submitted via: CDex 1.50Beta7
#
DISCID=560fcb16
DTITLE=Duke Ellington - Golden greats - disc 2
DYEAR=1900
DGENRE=Jazz
TTITLE0=Stormy Weather
TTITLE1=In the Shade of the Old Apple Tree
TTITLE2=Stompy Jones
TTITLE3=Solitude
TTITLE4=Merry-Go-Round
TTITLE5=In a Sentimental Mood
TTITLE6=Showboat Shuffle
TTITLE7=Clarinet Lament
TTITLE8=Echoes of Harlem
TTITLE9=Kissin' My Baby Goodnight
TTITLE10=Caravan
TTITLE11=Azure
TTITLE12=Harmony of Harlem
TTITLE13=I Let a Song Go Out of My Heart
TTITLE14=The Gals From Joe's
TTITLE15=Prelude to a Kiss
TTITLE16=Ridin' on a Bluenote
TTITLE17=I'm Slappin' Seventh Avenue (With the Sole of My Shoe)
TTITLE18=A Gypsy without a Song
TTITLE19=Boy Meets Horn
TTITLE20=Country Gal
TTITLE21=Jack the Bear
EXTD=
EXTT0=
EXTT1=
EXTT2=
EXTT3=
EXTT4=
EXTT5=
EXTT6=
EXTT7=
EXTT8=
EXTT9=
EXTT10=
EXTT11=
EXTT12=
EXTT13=
EXTT14=
EXTT15=
EXTT16=
EXTT17=
EXTT18=
EXTT19=
EXTT20=
EXTT21=
PLAYORDER=
